# Blender v2.93.5 OBJ File: ''
# www.blender.org
mtllib BuildingPhase1.mtl
o Box001
v -76.022339 -27.673998 43.280014
v -76.798805 -27.727835 47.231441
v -76.809967 -19.445333 43.282242
v -74.271179 2.064787 76.690010
v -74.271179 -27.727829 81.368256
v -74.271179 2.064789 81.368248
v -56.234741 -14.439724 86.079727
v -56.234741 3.904650 86.079727
v -66.527931 3.904650 86.079727
v -66.527931 -24.983879 85.030060
v -56.234741 -14.439724 85.030060
v -66.527931 -14.439724 85.030060
v -66.527931 -14.439724 86.079727
v -66.527931 -24.983879 86.079727
v -76.766884 -27.596558 81.499512
v -76.819572 3.773378 85.948456
v -76.766884 3.773378 81.499504
v -56.234741 -24.983879 86.079727
v -56.234741 -24.983879 85.030060
v -76.765335 3.904648 76.690010
v -76.776489 3.904646 68.981468
v -76.776489 -27.727833 68.981468
v -76.765335 -27.727829 81.368256
v -76.821121 -27.727829 86.079727
v -76.819572 -27.596558 85.948463
v -76.821121 3.904650 86.079720
v -76.765335 3.904650 81.368248
v -76.798805 3.904644 47.231438
v -76.809967 -8.901178 43.282242
v -76.809967 -27.673998 43.282246
v -76.765335 -27.727831 76.690018
v -74.271179 -27.727831 76.690018
v -75.969337 -27.727833 68.981468
v -75.969337 3.904646 68.981468
v -46.036896 2.066853 81.233551
v -46.036896 2.066851 76.555313
v -74.275696 2.066851 76.690010
v -76.787651 -27.727833 61.272934
v -76.787651 3.904646 61.272930
v -56.234741 -27.727829 86.079727
v -66.527931 -27.727829 86.079727
v -74.275696 2.066853 81.368248
v -75.980492 -27.727833 61.272934
v -75.980492 3.904646 61.272930
v -45.941540 3.904642 38.147324
v -76.821121 -27.727837 38.147324
v -76.821121 3.904642 38.147316
v -45.941540 -27.727837 38.147327
v -45.941544 3.904650 86.079727
v -45.941544 3.904650 81.233551
v -45.941544 3.904648 76.555313
v -76.809967 3.958481 43.282242
v -45.941544 -27.727829 86.079727
vt 0.272893 0.779166
vt 0.245043 0.751711
vt 0.337040 0.757279
vt 0.450083 0.446998
vt 0.216839 0.389707
vt 0.447504 0.412422
vt 0.457079 0.187154
vt 0.566453 0.332509
vt 0.494249 0.349754
vt 0.324923 0.204139
vt 0.443746 0.190252
vt 0.393340 0.254021
vt 0.397296 0.266823
vt 0.310237 0.208622
vt 0.222703 0.363866
vt 0.445983 0.364654
vt 0.443863 0.392522
vt 0.376193 0.106909
vt 0.380949 0.124512
vt 0.453205 0.467205
vt 0.447717 0.516049
vt 0.206775 0.541342
vt 0.219486 0.367576
vt 0.236295 0.313095
vt 0.237419 0.315874
vt 0.447024 0.363739
vt 0.444970 0.394312
vt 0.484874 0.673987
vt 0.413161 0.725664
vt 0.270157 0.787542
vt 0.210519 0.454993
vt 0.212220 0.432229
vt 0.207631 0.549653
vt 0.454334 0.521740
vt 0.681810 0.377104
vt 0.685601 0.398685
vt 0.450828 0.448679
vt 0.212382 0.610379
vt 0.457504 0.586358
vt 0.353097 0.087676
vt 0.281085 0.193509
vt 0.447714 0.410883
vt 0.211878 0.605209
vt 0.461529 0.579843
vt 0.688387 0.765956
vt 0.291083 0.835053
vt 0.486286 0.726924
vt 0.519489 0.999931
vt 0.666995 0.301143
vt 0.680149 0.357398
vt 0.688387 0.408605
vt 0.486168 0.702367
vt 0.434721 0.000069
vn -0.9767 -0.0934 -0.1932
vn -1.0000 -0.0000 0.0000
vn 0.0000 0.0000 1.0000
vn 1.0000 0.0000 0.0000
vn -0.9999 -0.0000 -0.0118
vn 0.0000 -1.0000 0.0000
vn 0.0000 1.0000 0.0000
vn -1.0000 0.0000 0.0014
vn 0.0000 -0.0000 -1.0000
vn -1.0000 -0.0000 0.0029
vn -1.0000 -0.0000 0.0024
vn -1.0000 0.0000 0.0028
vn 0.0000 0.9999 0.0136
vn -1.0000 0.0000 0.0008
vn 0.0028 0.0000 1.0000
vn -0.0045 -0.0015 -1.0000
vn -0.0044 0.0002 -1.0000
vn -0.0047 -0.0046 -1.0000
vn -0.0048 -0.0065 -1.0000
vn 0.0045 0.0042 1.0000
vn 0.0044 0.0059 1.0000
vn 0.0047 0.0016 1.0000
vn 0.0048 -0.0002 1.0000
vn -1.0000 0.0000 0.0025
vn -1.0000 0.0000 0.0022
vn 0.0016 1.0000 0.0056
vn 0.0001 1.0000 -0.0000
vn 0.0002 1.0000 -0.0000
vn 0.0022 1.0000 0.0028
vn 0.0016 1.0000 0.0055
vn -0.0000 0.9999 -0.0105
usemtl Material.001
s 1
f 1/1/1 2/2/1 3/3/1
f 4/4/2 5/5/2 6/6/2
f 7/7/3 8/8/3 9/9/3
f 10/10/3 11/11/3 12/12/3
f 12/12/4 13/13/4 14/14/4
f 15/15/5 16/16/5 17/17/5
f 11/11/6 7/7/6 13/13/6
f 10/10/7 18/18/7 19/19/7
f 20/20/8 21/21/8 22/22/8
f 23/23/5 24/24/5 25/25/5
f 25/25/5 15/15/5 23/23/5
f 24/24/5 26/26/5 16/16/5
f 16/16/5 25/25/5 24/24/5
f 26/26/5 27/27/5 17/17/5
f 17/17/5 16/16/5 26/26/5
f 27/27/5 23/23/5 15/15/5
f 15/15/5 17/17/5 27/27/5
f 10/10/3 19/19/3 11/11/3
f 6/6/9 23/23/9 27/27/9
f 15/15/5 25/25/5 16/16/5
f 6/6/9 5/5/9 23/23/9
f 28/28/10 29/29/11 3/3/12 2/2/12
f 1/1/13 30/30/13 2/2/13
f 4/4/3 31/31/3 32/32/3
f 10/10/7 14/14/7 18/18/7
f 33/33/9 22/22/9 21/21/9
f 33/33/9 21/21/9 34/34/9
f 35/35/7 36/36/7 37/37/7
f 2/2/14 38/38/14 39/39/14 28/28/14
f 40/40/3 14/14/3 41/41/3
f 4/4/3 20/20/3 31/31/3
f 19/19/2 18/18/2 7/7/2
f 35/35/7 37/37/7 42/42/7
f 19/19/2 7/7/2 11/11/2
f 43/43/8 34/34/8 44/44/8
f 40/40/3 18/18/3 14/14/3
f 3/3/15 30/30/15 1/1/15
f 45/45/9 46/46/9 47/47/9
f 44/44/3 38/38/3 43/43/3
f 43/43/8 33/33/8 34/34/8
f 20/20/8 22/22/8 31/31/8
f 45/45/9 48/48/9 46/46/9
f 11/11/6 13/13/6 12/12/6
f 44/44/3 39/39/3 38/38/3
f 12/12/4 14/14/4 10/10/4
f 8/8/7 49/49/7 50/50/7
f 9/9/7 8/8/7 50/50/7
f 9/9/7 50/50/7 27/27/7
f 9/9/7 27/27/7 26/26/7
f 27/27/16 50/50/17 35/35/18
f 35/35/18 42/42/19 27/27/16
f 51/51/20 20/20/21 37/37/22
f 37/37/22 36/36/23 51/51/20
f 47/47/24 29/29/11 28/28/10 52/52/24
f 3/3/25 29/29/25 47/47/25
f 3/3/25 47/47/25 46/46/25
f 3/3/25 46/46/25 30/30/25
f 28/28/26 39/39/7 44/44/7
f 34/34/27 21/21/7 20/20/7
f 34/34/27 20/20/7 51/51/28
f 4/4/2 32/32/2 5/5/2
f 52/52/29 28/28/30 44/44/28 34/34/27 51/51/28 45/45/28 47/47/31
f 18/18/3 40/40/3 53/53/3
f 7/7/3 18/18/3 53/53/3
f 7/7/3 53/53/3 49/49/3
f 7/7/3 49/49/3 8/8/3
f 13/13/3 9/9/3 26/26/3
f 14/14/3 13/13/3 26/26/3
f 14/14/3 26/26/3 24/24/3
f 14/14/3 24/24/3 41/41/3
f 7/7/3 9/9/3 13/13/3
